<svg width="84" height="84" viewBox="0 0 84 84" fill="none" xmlns="http://www.w3.org/2000/svg">
<g filter="url(#filter0_d)">
<circle cx="42" cy="38" r="36" fill="#F8B24F"/>
<circle cx="42" cy="38" r="35" stroke="white" stroke-width="2"/>
</g>
<g clip-path="url(#clip0)">
<path fill-rule="evenodd" clip-rule="evenodd" d="M42.5 26.125C44.9476 26.125 47.3401 26.8508 49.3752 28.2106C51.4102 29.5704 52.9964 31.5031 53.933 33.7643C54.8696 36.0255 55.1147 38.5137 54.6372 40.9143C54.1597 43.3148 52.9811 45.5198 51.2504 47.2505C49.5198 48.9811 47.3148 50.1597 44.9142 50.6372C42.5137 51.1147 40.0255 50.8696 37.7643 49.933C35.5031 48.9964 33.5704 47.4102 32.2106 45.3752C30.8508 43.3401 30.125 40.9475 30.125 38.5C30.125 35.2179 31.4288 32.0703 33.7496 29.7495C36.0703 27.4288 39.218 26.125 42.5 26.125ZM42.5 22C39.2366 22 36.0465 22.9677 33.3331 24.7807C30.6197 26.5938 28.5048 29.1708 27.256 32.1857C26.0071 35.2007 25.6804 38.5183 26.3171 41.719C26.9537 44.9197 28.5252 47.8597 30.8327 50.1673C33.1403 52.4748 36.0803 54.0463 39.281 54.683C42.4817 55.3196 45.7993 54.9929 48.8143 53.744C51.8293 52.4952 54.4062 50.3803 56.2193 47.6669C58.0323 44.9535 59 41.7634 59 38.5C58.9951 34.1254 57.2551 29.9315 54.1618 26.8382C51.0686 23.7449 46.8746 22.0049 42.5 22ZM40.4375 40.5625L34.25 38.5L48.6875 32.3125L42.5 46.75L40.4375 40.5625Z" fill="white"/>
</g>
<defs>
<filter id="filter0_d" x="0" y="0" width="84" height="84" filterUnits="userSpaceOnUse" color-interpolation-filters="sRGB">
<feFlood flood-opacity="0" result="BackgroundImageFix"/>
<feColorMatrix in="SourceAlpha" type="matrix" values="0 0 0 0 0 0 0 0 0 0 0 0 0 0 0 0 0 0 127 0"/>
<feOffset dy="4"/>
<feGaussianBlur stdDeviation="3"/>
<feColorMatrix type="matrix" values="0 0 0 0 0.933333 0 0 0 0 0.6 0 0 0 0 0.592157 0 0 0 0.42 0"/>
<feBlend mode="normal" in2="BackgroundImageFix" result="effect1_dropShadow"/>
<feBlend mode="normal" in="SourceGraphic" in2="effect1_dropShadow" result="shape"/>
</filter>
<clipPath id="clip0">
<rect width="33" height="33" fill="white" transform="translate(26 22)"/>
</clipPath>
</defs>
</svg>
