<svg width="172" height="67" viewBox="0 0 172 67" fill="none" xmlns="http://www.w3.org/2000/svg">
<path d="M1.12 18.525H7.63V39H12.53V18.525H19.04V14.57H1.12V18.525ZM35.5652 22.165C35.5652 24.37 34.3402 25.805 31.6102 25.805H27.5152V18.63H31.6102C34.3402 18.63 35.5652 19.995 35.5652 22.165ZM22.6152 14.57V39H27.5152V29.48H29.8252L35.2152 39H40.8852L35.0402 29.095C38.9602 28.045 40.6052 25.035 40.6052 22.06C40.6052 17.965 37.6652 14.57 31.7852 14.57H22.6152ZM61.6271 39H66.8071L58.0221 14.535H52.3171L43.5321 39H48.6771L50.2871 34.345H60.0171L61.6271 39ZM58.6871 30.425H51.6171L55.1521 20.205L58.6871 30.425ZM86.0858 14.535V31.335L74.9908 14.535H70.0908V39H74.9908V22.235L86.0858 39H90.9858V14.535H86.0858ZM99.6781 26.715C99.6781 21.745 102.723 18.63 107.168 18.63C111.578 18.63 114.623 21.745 114.623 26.715C114.623 31.685 111.578 34.87 107.168 34.87C102.723 34.87 99.6781 31.685 99.6781 26.715ZM119.663 26.715C119.663 19.4 114.133 14.22 107.168 14.22C100.273 14.22 94.6381 19.4 94.6381 26.715C94.6381 34.065 100.273 39.245 107.168 39.245C108.253 39.245 109.338 39.105 110.318 38.86L114.028 43.305H120.118L114.518 37.005C117.633 34.8 119.663 31.16 119.663 26.715ZM123.307 29.655C123.307 36.095 127.717 39.245 133.072 39.245C138.427 39.245 143.047 36.095 143.047 29.655V14.57H138.112V29.69C138.112 33.05 136.292 34.8 133.142 34.8C130.027 34.8 128.207 33.05 128.207 29.69V14.57H123.307V29.655ZM147.781 39H152.681V14.57H147.781V39ZM157.522 14.57V39H170.472V35.115H162.422V14.57H157.522Z" fill="white"/>
<path d="M33.208 51.072C33.208 52.602 32.29 53.718 30.238 53.718H27.7V48.48H30.22C32.344 48.48 33.208 49.488 33.208 51.072ZM26.44 47.418V60H27.7V54.744H30.022L33.136 60H34.648L31.408 54.654C33.532 54.258 34.504 52.8 34.504 51.072C34.504 49.002 33.136 47.418 30.22 47.418H26.44ZM45.3745 47.4H38.8045V60H45.3745V58.956H40.0645V54.186H44.8345V53.142H40.0645V48.444H45.3745V47.4ZM58.0452 60H59.3772L54.8052 47.58H53.3832L48.7932 60H50.1252L51.2232 57.012H56.9472L58.0452 60ZM56.5692 55.968H51.6012L54.0852 49.164L56.5692 55.968ZM63.1994 47.418V60H68.9774V58.974H64.4594V47.418H63.1994ZM85.885 47.4H79.315V60H85.885V58.956H80.575V54.186H85.345V53.142H80.575V48.444H85.885V47.4ZM98.0337 56.688C98.0337 52.008 91.1217 54.24 91.1217 50.604C91.1217 49.146 92.3457 48.336 93.8217 48.354C95.5677 48.372 96.4137 49.452 96.5577 50.334H97.9257C97.7097 48.606 96.2697 47.274 93.8757 47.274C91.4457 47.274 89.8437 48.696 89.8437 50.64C89.8437 55.374 96.7557 53.034 96.7557 56.742C96.7557 58.038 95.7297 59.064 93.9837 59.064C91.9497 59.064 91.1757 57.804 91.0677 56.76H89.7357C89.8077 58.686 91.4637 60.126 93.9837 60.126C96.6477 60.126 98.0337 58.398 98.0337 56.688ZM101.369 48.462H104.879V60H106.139V48.462H109.631V47.418H101.369V48.462ZM121.808 60H123.14L118.568 47.58H117.146L112.556 60H113.888L114.986 57.012H120.71L121.808 60ZM120.332 55.968H115.364L117.848 49.164L120.332 55.968ZM126.062 48.462H129.572V60H130.832V48.462H134.324V47.418H126.062V48.462ZM144.684 47.4H138.114V60H144.684V58.956H139.374V54.186H144.144V53.142H139.374V48.444H144.684V47.4Z" fill="white"/>
</svg>
