<svg width="73" height="31" viewBox="0 0 73 31" fill="none" xmlns="http://www.w3.org/2000/svg">
<path fill-rule="evenodd" clip-rule="evenodd" d="M67.75 0H36.25C34.8576 0 33.5223 0.54434 32.5377 1.51328C31.5531 2.48222 31 3.79638 31 5.16667V25.8333C31 27.2036 31.5531 28.5178 32.5377 29.4867C33.5223 30.4557 34.8576 31 36.25 31H67.75C69.1424 31 70.4777 30.4557 71.4623 29.4867C72.4469 28.5178 73 27.2036 73 25.8333V5.16667C73 3.79638 72.4469 2.48222 71.4623 1.51328C70.4777 0.54434 69.1424 0 67.75 0ZM63.6498 5.16667L52 14.725L40.3502 5.16667H63.6498ZM36.25 25.8333V8.52497L50.32 20.0647C50.7917 20.4514 51.3861 20.6631 52 20.6631C52.6139 20.6631 53.2083 20.4514 53.68 20.0647L67.75 8.52497V25.8333H36.25Z" fill="#303A5D"/>
<rect y="3" width="28" height="2" fill="#303A5D"/>
<rect y="3" width="28" height="2" fill="#303A5D"/>
<rect y="3" width="28" height="2" fill="#303A5D"/>
<rect x="8" y="11" width="20" height="2" fill="#303A5D"/>
<rect x="8" y="11" width="20" height="2" fill="#303A5D"/>
<rect x="8" y="11" width="20" height="2" fill="#303A5D"/>
<rect x="17" y="19" width="11" height="2" fill="#303A5D"/>
<rect x="17" y="19" width="11" height="2" fill="#303A5D"/>
<rect x="17" y="19" width="11" height="2" fill="#303A5D"/>
</svg>
