<svg width="249" height="83" viewBox="0 0 249 83" fill="none" xmlns="http://www.w3.org/2000/svg">
<path d="M12.8 47C12.4667 47 12.1833 46.8833 11.95 46.65C11.7167 46.4167 11.6 46.1333 11.6 45.8V18.15H2.35C2.01667 18.15 1.73333 18.0333 1.5 17.8C1.26667 17.5667 1.15 17.2833 1.15 16.95V13.25C1.15 12.8833 1.25 12.5833 1.45 12.35C1.68333 12.1167 1.98333 12 2.35 12H27.85C28.2167 12 28.5167 12.1167 28.75 12.35C28.9833 12.5833 29.1 12.8833 29.1 13.25V16.95C29.1 17.2833 28.9833 17.5667 28.75 17.8C28.5167 18.0333 28.2167 18.15 27.85 18.15H18.65V45.8C18.65 46.1333 18.5333 46.4167 18.3 46.65C18.0667 46.8833 17.7667 47 17.4 47H12.8ZM35.3734 47C35.0401 47 34.7568 46.8833 34.5234 46.65C34.2901 46.4167 34.1734 46.1333 34.1734 45.8V13.25C34.1734 12.8833 34.2734 12.5833 34.4734 12.35C34.7068 12.1167 35.0068 12 35.3734 12H48.3234C52.3901 12 55.5734 12.95 57.8734 14.85C60.2068 16.75 61.3734 19.45 61.3734 22.95C61.3734 25.3833 60.7734 27.4333 59.5734 29.1C58.4068 30.7333 56.7734 31.9167 54.6734 32.65L61.9734 45.4C62.0734 45.6 62.1234 45.7833 62.1234 45.95C62.1234 46.25 62.0068 46.5 61.7734 46.7C61.5734 46.9 61.3401 47 61.0734 47H56.5234C55.9901 47 55.5734 46.8833 55.2734 46.65C55.0068 46.4167 54.7568 46.0833 54.5234 45.65L48.0734 33.8H41.1234V45.8C41.1234 46.1333 41.0068 46.4167 40.7734 46.65C40.5734 46.8833 40.2901 47 39.9234 47H35.3734ZM48.1734 28.15C50.1734 28.15 51.6734 27.7 52.6734 26.8C53.7068 25.9 54.2234 24.6 54.2234 22.9C54.2234 21.2 53.7068 19.8833 52.6734 18.95C51.6734 18.0167 50.1734 17.55 48.1734 17.55H41.1234V28.15H48.1734ZM65.666 47C65.3993 47 65.1493 46.9 64.916 46.7C64.716 46.5 64.616 46.25 64.616 45.95L64.716 45.5L76.766 13.25C76.9993 12.4167 77.5827 12 78.516 12H83.966C84.8327 12 85.416 12.4167 85.716 13.25L97.766 45.5C97.7994 45.6 97.816 45.75 97.816 45.95C97.816 46.25 97.716 46.5 97.516 46.7C97.316 46.9 97.0827 47 96.816 47H92.466C92.0327 47 91.6993 46.9 91.466 46.7C91.2327 46.5 91.0827 46.2833 91.016 46.05L88.666 39.95H73.816L71.466 46.05C71.1993 46.6833 70.716 47 70.016 47H65.666ZM86.916 34.2L81.216 18.75L75.566 34.2H86.916ZM103.684 47C103.351 47 103.067 46.8833 102.834 46.65C102.601 46.4167 102.484 46.1333 102.484 45.8V13.25C102.484 12.8833 102.584 12.5833 102.784 12.35C103.017 12.1167 103.317 12 103.684 12H107.534C107.934 12 108.234 12.0833 108.434 12.25C108.634 12.3833 108.817 12.5667 108.984 12.8L123.384 35.2V13.25C123.384 12.8833 123.484 12.5833 123.684 12.35C123.917 12.1167 124.217 12 124.584 12H128.784C129.151 12 129.451 12.1167 129.684 12.35C129.917 12.5833 130.034 12.8833 130.034 13.25V45.75C130.034 46.1167 129.917 46.4167 129.684 46.65C129.451 46.8833 129.167 47 128.834 47H124.934C124.367 47 123.884 46.7333 123.484 46.2L109.134 24.3V45.8C109.134 46.1667 109.017 46.4667 108.784 46.7C108.551 46.9 108.251 47 107.884 47H103.684ZM160.286 50.25C159.886 50.25 159.536 50.1333 159.236 49.9C158.969 49.7 158.719 49.4333 158.486 49.1L156.636 46.6C155.102 47.2 153.319 47.5 151.286 47.5C146.752 47.5 143.219 46.35 140.686 44.05C138.152 41.75 136.802 38.3333 136.636 33.8C136.602 32.8333 136.586 31.4167 136.586 29.55C136.586 27.65 136.602 26.2167 136.636 25.25C136.769 20.8167 138.136 17.4167 140.736 15.05C143.369 12.6833 146.886 11.5 151.286 11.5C155.686 11.5 159.186 12.6833 161.786 15.05C164.386 17.4167 165.752 20.8167 165.886 25.25C165.952 27.1833 165.986 28.6167 165.986 29.55C165.986 30.45 165.952 31.8667 165.886 33.8C165.752 38.1333 164.552 41.45 162.286 43.75L165.786 48.7C165.886 48.9 165.936 49.0667 165.936 49.2V49.3C165.936 49.5667 165.836 49.7833 165.636 49.95C165.436 50.15 165.202 50.25 164.936 50.25H160.286ZM151.286 41.75C153.519 41.75 155.286 41.0833 156.586 39.75C157.919 38.3833 158.636 36.3167 158.736 33.55C158.802 31.55 158.836 30.2 158.836 29.5C158.836 28.7333 158.802 27.3833 158.736 25.45C158.636 22.6833 157.919 20.6333 156.586 19.3C155.252 17.9333 153.486 17.25 151.286 17.25C149.052 17.25 147.269 17.9333 145.936 19.3C144.602 20.6333 143.886 22.6833 143.786 25.45C143.752 26.4167 143.736 27.7667 143.736 29.5C143.736 31.2 143.752 32.55 143.786 33.55C143.886 36.3167 144.602 38.3833 145.936 39.75C147.269 41.0833 149.052 41.75 151.286 41.75ZM186.551 47.5C182.051 47.5 178.551 46.35 176.051 44.05C173.551 41.75 172.301 38.2667 172.301 33.6V13.25C172.301 12.8833 172.401 12.5833 172.601 12.35C172.835 12.1167 173.135 12 173.501 12H178.051C178.418 12 178.701 12.1167 178.901 12.35C179.135 12.5833 179.251 12.8833 179.251 13.25V33.6C179.251 36.2667 179.885 38.2833 181.151 39.65C182.418 40.9833 184.218 41.65 186.551 41.65C188.885 41.65 190.668 40.9833 191.901 39.65C193.168 38.2833 193.801 36.2667 193.801 33.6V13.25C193.801 12.8833 193.918 12.5833 194.151 12.35C194.385 12.1167 194.685 12 195.051 12H199.551C199.918 12 200.201 12.1167 200.401 12.35C200.635 12.5833 200.751 12.8833 200.751 13.25V33.6C200.751 38.2667 199.501 41.75 197.001 44.05C194.535 46.35 191.051 47.5 186.551 47.5ZM209.446 47C209.112 47 208.829 46.8833 208.596 46.65C208.362 46.4167 208.246 46.1333 208.246 45.8V13.2C208.246 12.8333 208.362 12.55 208.596 12.35C208.829 12.1167 209.112 12 209.446 12H214.146C214.512 12 214.796 12.1167 214.996 12.35C215.229 12.55 215.346 12.8333 215.346 13.2V45.8C215.346 46.1333 215.229 46.4167 214.996 46.65C214.796 46.8833 214.512 47 214.146 47H209.446ZM224.387 47C224.054 47 223.77 46.8833 223.537 46.65C223.304 46.4167 223.187 46.1333 223.187 45.8V13.2C223.187 12.8333 223.304 12.55 223.537 12.35C223.77 12.1167 224.054 12 224.387 12H229.037C229.404 12 229.687 12.1167 229.887 12.35C230.12 12.55 230.237 12.8333 230.237 13.2V41.05H246.087C246.454 41.05 246.754 41.1667 246.987 41.4C247.22 41.6333 247.337 41.9333 247.337 42.3V45.8C247.337 46.1667 247.22 46.4667 246.987 46.7C246.754 46.9 246.454 47 246.087 47H224.387Z" fill="white"/>
<path d="M29.48 75C29.28 75 29.12 74.94 29 74.82C28.88 74.7 28.82 74.54 28.82 74.34V54.69C28.82 54.49 28.88 54.33 29 54.21C29.12 54.07 29.28 54 29.48 54H36.47C38.63 54 40.32 54.51 41.54 55.53C42.76 56.55 43.37 58.06 43.37 60.06C43.37 61.64 42.98 62.92 42.2 63.9C41.42 64.86 40.3 65.51 38.84 65.85L43.67 74.07C43.73 74.19 43.76 74.3 43.76 74.4C43.76 74.56 43.7 74.7 43.58 74.82C43.46 74.94 43.32 75 43.16 75H42.8C42.5 75 42.27 74.94 42.11 74.82C41.97 74.68 41.82 74.47 41.66 74.19L36.89 66.12H30.71V74.34C30.71 74.54 30.64 74.7 30.5 74.82C30.38 74.94 30.22 75 30.02 75H29.48ZM36.32 64.32C38.06 64.32 39.35 63.97 40.19 63.27C41.05 62.55 41.48 61.48 41.48 60.06C41.48 58.64 41.05 57.58 40.19 56.88C39.35 56.16 38.06 55.8 36.32 55.8H30.71V64.32H36.32ZM50.1695 75C49.9695 75 49.8095 74.94 49.6895 74.82C49.5695 74.7 49.5095 74.54 49.5095 74.34V54.69C49.5095 54.49 49.5695 54.33 49.6895 54.21C49.8095 54.07 49.9695 54 50.1695 54H61.8695C62.0895 54 62.2595 54.06 62.3795 54.18C62.4995 54.3 62.5595 54.47 62.5595 54.69V55.14C62.5595 55.34 62.4895 55.5 62.3495 55.62C62.2295 55.74 62.0695 55.8 61.8695 55.8H51.3995V63.45H61.2095C61.4295 63.45 61.5995 63.51 61.7195 63.63C61.8395 63.75 61.8995 63.92 61.8995 64.14V64.59C61.8995 64.79 61.8295 64.95 61.6895 65.07C61.5695 65.19 61.4095 65.25 61.2095 65.25H51.3995V73.2H62.1095C62.3295 73.2 62.4995 73.26 62.6195 73.38C62.7395 73.5 62.7995 73.67 62.7995 73.89V74.34C62.7995 74.54 62.7295 74.7 62.5895 74.82C62.4695 74.94 62.3095 75 62.1095 75H50.1695ZM67.2634 75C67.1034 75 66.9634 74.94 66.8434 74.82C66.7234 74.7 66.6634 74.56 66.6634 74.4L66.7234 74.07L74.3134 54.6C74.4734 54.2 74.7634 54 75.1834 54H76.2034C76.6234 54 76.9134 54.2 77.0734 54.6L84.6634 74.07L84.7234 74.4C84.7234 74.56 84.6634 74.7 84.5434 74.82C84.4234 74.94 84.2834 75 84.1234 75H83.5234C83.3434 75 83.1934 74.95 83.0734 74.85C82.9734 74.75 82.9034 74.65 82.8634 74.55L81.0034 69.75H70.3834L68.5234 74.55C68.4834 74.65 68.4034 74.75 68.2834 74.85C68.1834 74.95 68.0434 75 67.8634 75H67.2634ZM80.2834 67.95L75.6934 56.13L71.1034 67.95H80.2834ZM90.4351 75C90.2351 75 90.0751 74.94 89.9551 74.82C89.8351 74.7 89.7751 74.54 89.7751 74.34V54.66C89.7751 54.46 89.8351 54.3 89.9551 54.18C90.0751 54.06 90.2351 54 90.4351 54H91.0051C91.2051 54 91.3651 54.06 91.4851 54.18C91.6051 54.3 91.6651 54.46 91.6651 54.66V73.2H102.015C102.235 73.2 102.405 73.26 102.525 73.38C102.645 73.5 102.705 73.67 102.705 73.89V74.34C102.705 74.54 102.635 74.7 102.495 74.82C102.375 74.94 102.215 75 102.015 75H90.4351ZM116.785 75C116.585 75 116.425 74.94 116.305 74.82C116.185 74.7 116.125 74.54 116.125 74.34V54.69C116.125 54.49 116.185 54.33 116.305 54.21C116.425 54.07 116.585 54 116.785 54H128.485C128.705 54 128.875 54.06 128.995 54.18C129.115 54.3 129.175 54.47 129.175 54.69V55.14C129.175 55.34 129.105 55.5 128.965 55.62C128.845 55.74 128.685 55.8 128.485 55.8H118.015V63.45H127.825C128.045 63.45 128.215 63.51 128.335 63.63C128.455 63.75 128.515 63.92 128.515 64.14V64.59C128.515 64.79 128.445 64.95 128.305 65.07C128.185 65.19 128.025 65.25 127.825 65.25H118.015V73.2H128.725C128.945 73.2 129.115 73.26 129.235 73.38C129.355 73.5 129.415 73.67 129.415 73.89V74.34C129.415 74.54 129.345 74.7 129.205 74.82C129.085 74.94 128.925 75 128.725 75H116.785ZM141.679 75.3C140.119 75.3 138.759 75.05 137.599 74.55C136.459 74.03 135.579 73.36 134.959 72.54C134.359 71.72 134.039 70.84 133.999 69.9C133.999 69.74 134.059 69.6 134.179 69.48C134.299 69.36 134.449 69.3 134.629 69.3H135.229C135.589 69.3 135.809 69.5 135.889 69.9C136.029 70.86 136.579 71.7 137.539 72.42C138.499 73.14 139.879 73.5 141.679 73.5C143.579 73.5 144.989 73.16 145.909 72.48C146.849 71.78 147.319 70.81 147.319 69.57C147.319 68.81 147.089 68.19 146.629 67.71C146.189 67.21 145.539 66.78 144.679 66.42C143.819 66.04 142.519 65.57 140.779 65.01C139.239 64.51 138.029 64.02 137.149 63.54C136.289 63.06 135.649 62.47 135.229 61.77C134.809 61.07 134.599 60.18 134.599 59.1C134.599 58.08 134.869 57.16 135.409 56.34C135.969 55.52 136.769 54.88 137.809 54.42C138.849 53.94 140.089 53.7 141.529 53.7C143.009 53.7 144.279 53.97 145.339 54.51C146.399 55.03 147.199 55.7 147.739 56.52C148.279 57.32 148.569 58.13 148.609 58.95C148.609 59.11 148.549 59.25 148.429 59.37C148.329 59.49 148.179 59.55 147.979 59.55H147.379C147.239 59.55 147.099 59.51 146.959 59.43C146.819 59.33 146.739 59.17 146.719 58.95C146.599 57.95 146.059 57.13 145.099 56.49C144.159 55.83 142.969 55.5 141.529 55.5C139.989 55.5 138.759 55.8 137.839 56.4C136.939 57 136.489 57.9 136.489 59.1C136.489 59.88 136.689 60.53 137.089 61.05C137.509 61.55 138.129 61.99 138.949 62.37C139.769 62.73 140.979 63.17 142.579 63.69C144.219 64.21 145.499 64.71 146.419 65.19C147.339 65.67 148.029 66.25 148.489 66.93C148.969 67.61 149.209 68.49 149.209 69.57C149.209 71.37 148.539 72.78 147.199 73.8C145.859 74.8 144.019 75.3 141.679 75.3ZM160.058 75C159.858 75 159.698 74.94 159.578 74.82C159.458 74.7 159.398 74.54 159.398 74.34V55.8H153.458C153.258 55.8 153.098 55.74 152.978 55.62C152.858 55.5 152.798 55.34 152.798 55.14V54.69C152.798 54.49 152.858 54.33 152.978 54.21C153.098 54.07 153.258 54 153.458 54H167.198C167.418 54 167.588 54.06 167.708 54.18C167.828 54.3 167.888 54.47 167.888 54.69V55.14C167.888 55.34 167.818 55.5 167.678 55.62C167.558 55.74 167.398 55.8 167.198 55.8H161.288V74.34C161.288 74.54 161.218 74.7 161.078 74.82C160.958 74.94 160.798 75 160.598 75H160.058ZM169.252 75C169.092 75 168.952 74.94 168.832 74.82C168.712 74.7 168.652 74.56 168.652 74.4L168.712 74.07L176.302 54.6C176.462 54.2 176.752 54 177.172 54H178.192C178.612 54 178.902 54.2 179.062 54.6L186.652 74.07L186.712 74.4C186.712 74.56 186.652 74.7 186.532 74.82C186.412 74.94 186.272 75 186.112 75H185.512C185.332 75 185.182 74.95 185.062 74.85C184.962 74.75 184.892 74.65 184.852 74.55L182.992 69.75H172.372L170.512 74.55C170.472 74.65 170.392 74.75 170.272 74.85C170.172 74.95 170.032 75 169.852 75H169.252ZM182.272 67.95L177.682 56.13L173.092 67.95H182.272ZM194.758 75C194.558 75 194.398 74.94 194.278 74.82C194.158 74.7 194.098 74.54 194.098 74.34V55.8H188.158C187.958 55.8 187.798 55.74 187.677 55.62C187.558 55.5 187.498 55.34 187.498 55.14V54.69C187.498 54.49 187.558 54.33 187.677 54.21C187.798 54.07 187.958 54 188.158 54H201.898C202.118 54 202.288 54.06 202.408 54.18C202.528 54.3 202.588 54.47 202.588 54.69V55.14C202.588 55.34 202.518 55.5 202.378 55.62C202.258 55.74 202.098 55.8 201.898 55.8H195.988V74.34C195.988 74.54 195.918 74.7 195.778 74.82C195.658 74.94 195.498 75 195.298 75H194.758ZM208.367 75C208.167 75 208.007 74.94 207.887 74.82C207.767 74.7 207.707 74.54 207.707 74.34V54.69C207.707 54.49 207.767 54.33 207.887 54.21C208.007 54.07 208.167 54 208.367 54H220.067C220.287 54 220.457 54.06 220.577 54.18C220.697 54.3 220.757 54.47 220.757 54.69V55.14C220.757 55.34 220.687 55.5 220.547 55.62C220.427 55.74 220.267 55.8 220.067 55.8H209.597V63.45H219.407C219.627 63.45 219.797 63.51 219.917 63.63C220.037 63.75 220.097 63.92 220.097 64.14V64.59C220.097 64.79 220.027 64.95 219.887 65.07C219.767 65.19 219.607 65.25 219.407 65.25H209.597V73.2H220.307C220.527 73.2 220.697 73.26 220.817 73.38C220.937 73.5 220.997 73.67 220.997 73.89V74.34C220.997 74.54 220.927 74.7 220.787 74.82C220.667 74.94 220.507 75 220.307 75H208.367Z" fill="white"/>
</svg>
