<svg width="25" height="25" viewBox="0 0 25 25" fill="none" xmlns="http://www.w3.org/2000/svg">
<path d="M12.4994 0C5.59531 0 0 5.59656 0 12.4994C0 17.7944 3.29438 22.3212 7.94505 24.1429C7.83494 23.1545 7.73735 21.633 7.98759 20.5545C8.2153 19.5786 9.45398 14.3411 9.45398 14.3411C9.45398 14.3411 9.07987 13.5917 9.07987 12.4844C9.07987 10.7477 10.0871 9.45023 11.342 9.45023C12.4093 9.45023 12.9235 10.251 12.9235 11.2106C12.9235 12.2842 12.2404 13.8869 11.8888 15.3734C11.5948 16.617 12.5131 17.6317 13.7393 17.6317C15.9602 17.6317 17.6693 15.2895 17.6693 11.9076C17.6693 8.91472 15.5185 6.82273 12.4481 6.82273C8.89095 6.82273 6.80271 9.49026 6.80271 12.2466C6.80271 13.3202 7.21686 14.4725 7.7336 15.0993C7.77751 15.1465 7.80852 15.2043 7.82364 15.2669C7.83876 15.3296 7.83748 15.3951 7.81993 15.4572C7.72484 15.8513 7.51339 16.7009 7.47335 16.8748C7.4183 17.1037 7.29193 17.1525 7.0542 17.0424C5.49397 16.3155 4.51804 14.0333 4.51804 12.1991C4.51804 8.25659 7.38201 4.63565 12.7771 4.63565C17.1138 4.63565 20.4832 7.72484 20.4832 11.855C20.4832 16.1641 17.7669 19.6286 13.997 19.6286C12.7296 19.6286 11.5397 18.9718 11.1318 18.1948L10.3523 21.1651C10.0708 22.2511 9.30884 23.6124 8.79961 24.4432C9.99839 24.8133 11.246 25.001 12.5006 25C19.4034 25 25 19.4034 25 12.5006C25 5.59782 19.4022 0 12.4994 0Z" fill="white"/>
</svg>
