<svg width="40" height="40" viewBox="0 0 40 40" fill="none" xmlns="http://www.w3.org/2000/svg">
<path fill-rule="evenodd" clip-rule="evenodd" d="M26.1047 26.1047C26.3369 25.8723 26.6126 25.6879 26.9161 25.5621C27.2195 25.4363 27.5449 25.3715 27.8734 25.3715C28.2019 25.3715 28.5272 25.4363 28.8307 25.5621C29.1342 25.6879 29.4099 25.8723 29.6421 26.1047L39.267 35.7296C39.7361 36.1984 39.9998 36.8343 40 37.4974C40.0002 38.1606 39.737 38.7967 39.2683 39.2658C38.7995 39.7349 38.1636 39.9986 37.5004 39.9988C36.8372 39.999 36.2011 39.7358 35.732 39.267L26.1072 29.6422C25.8747 29.41 25.6903 29.1343 25.5645 28.8308C25.4387 28.5273 25.374 28.202 25.374 27.8734C25.374 27.5449 25.4387 27.2196 25.5645 26.9161C25.6903 26.6126 25.8747 26.3369 26.1072 26.1047H26.1047Z" fill="white"/>
<path fill-rule="evenodd" clip-rule="evenodd" d="M16.2498 29.9996C18.0554 29.9996 19.8434 29.644 21.5116 28.953C23.1798 28.262 24.6956 27.2492 25.9724 25.9724C27.2492 24.6956 28.262 23.1798 28.953 21.5116C29.644 19.8434 29.9996 18.0554 29.9996 16.2498C29.9996 14.4441 29.644 12.6562 28.953 10.988C28.262 9.31976 27.2492 7.80399 25.9724 6.5272C24.6956 5.25041 23.1798 4.23761 21.5116 3.54661C19.8434 2.85562 18.0554 2.49997 16.2498 2.49997C12.6031 2.49997 9.10579 3.94861 6.5272 6.5272C3.94861 9.10579 2.49997 12.6031 2.49997 16.2498C2.49997 19.8965 3.94861 23.3938 6.5272 25.9724C9.10579 28.551 12.6031 29.9996 16.2498 29.9996ZM32.4996 16.2498C32.4996 20.5595 30.7876 24.6927 27.7401 27.7401C24.6927 30.7876 20.5595 32.4996 16.2498 32.4996C11.9401 32.4996 7.80688 30.7876 4.75946 27.7401C1.71203 24.6927 0 20.5595 0 16.2498C0 11.9401 1.71203 7.80688 4.75946 4.75946C7.80688 1.71203 11.9401 0 16.2498 0C20.5595 0 24.6927 1.71203 27.7401 4.75946C30.7876 7.80688 32.4996 11.9401 32.4996 16.2498Z" fill="white"/>
</svg>
