<svg width="30" height="24" viewBox="0 0 30 24" fill="none" xmlns="http://www.w3.org/2000/svg">
<path d="M26.9179 5.98121C26.9377 6.24433 26.9377 6.50595 26.9377 6.76757C26.9377 14.7741 20.7506 24 9.44331 24C5.9597 24 2.72339 23.0061 0 21.28C0.494606 21.3357 0.970894 21.3552 1.48535 21.3552C4.25299 21.3618 6.94226 20.4503 9.11968 18.7676C7.83649 18.7447 6.59257 18.3277 5.56163 17.5748C4.53068 16.822 3.76417 15.7708 3.36912 14.5681C3.74924 14.6237 4.13088 14.6613 4.53084 14.6613C5.08192 14.6613 5.63607 14.5861 6.15052 14.4553C4.75793 14.1784 3.50571 13.4349 2.60679 12.3514C1.70786 11.2678 1.21773 9.91101 1.21972 8.51171V8.43654C2.03949 8.8861 2.99054 9.16727 3.99807 9.20486C3.15401 8.65243 2.46192 7.9028 1.98352 7.02287C1.50513 6.14293 1.25531 5.16004 1.25636 4.16188C1.25636 3.03721 1.56015 2.00576 2.09292 1.10663C3.63801 2.9786 5.56509 4.51005 7.74934 5.60179C9.9336 6.69353 12.3263 7.32121 14.7725 7.44418C14.6779 6.99311 14.6199 6.5255 14.6199 6.05638C14.6195 5.26094 14.7783 4.47321 15.0871 3.73824C15.396 3.00327 15.8489 2.33546 16.42 1.77299C16.9911 1.21053 17.6691 0.764432 18.4153 0.460211C19.1615 0.155989 19.9613 -0.000394506 20.7689 7.4737e-07C22.5397 7.4737e-07 24.138 0.730736 25.2616 1.91254C26.6382 1.65035 27.9583 1.15538 29.1634 0.449568C28.7046 1.84912 27.7434 3.03587 26.4599 3.7875C27.6808 3.65034 28.8741 3.3341 30 2.84927C29.1591 4.05678 28.117 5.11567 26.9179 5.98121Z" fill="white"/>
</svg>
