<svg width="33" height="23" viewBox="0 0 33 23" fill="none" xmlns="http://www.w3.org/2000/svg">
<path d="M32.3287 3.61612C32.1409 2.92245 31.7739 2.28984 31.2641 1.78126C30.7544 1.27268 30.1198 0.905863 29.4234 0.717325C26.8414 0.0115023 16.5114 1.24693e-05 16.5114 1.24693e-05C16.5114 1.24693e-05 6.18313 -0.011478 3.59941 0.663157C2.90347 0.860372 2.27015 1.23237 1.76024 1.74345C1.25033 2.25453 0.88095 2.88752 0.687566 3.58165C0.00659805 6.15216 2.41578e-06 11.4836 2.41578e-06 11.4836C2.41578e-06 11.4836 -0.00659289 16.8413 0.669429 19.3855C1.04866 20.7922 2.16162 21.9035 3.57632 22.2827C6.18478 22.9885 16.4867 23 16.4867 23C16.4867 23 26.8166 23.0115 29.3987 22.3385C30.0953 22.1503 30.7305 21.7843 31.2415 21.2768C31.7525 20.7692 32.1216 20.1377 32.3122 19.4446C32.9948 16.8757 32.9998 11.546 32.9998 11.546C32.9998 11.546 33.0327 6.18663 32.3287 3.61612ZM13.2072 16.4227L13.2154 6.57401L21.8009 11.5066L13.2072 16.4227Z" fill="white"/>
</svg>
